<svg width="122" height="122" viewBox="0 0 122 122" fill="none" xmlns="http://www.w3.org/2000/svg">
<path d="M121.84 43.4L110.5 32.06L91.61 50.95V5.46H75.57V32.16L43.41 0L32.06 11.34L50.95 30.23H5.46V46.27H32.17L0 78.43L11.35 89.78L30.23 70.9V116.38H46.28V89.68L78.44 121.84L89.78 110.49L70.9 91.61H116.38V75.56H89.69L121.84 43.4ZM66.3 76.25C64.62 76.85 62.8 77.17 60.92 77.17C59.04 77.17 57.23 76.85 55.55 76.26C54.98 76.06 54.42 75.83 53.88 75.56C50.55 73.96 47.86 71.25 46.28 67.91C46.03 67.4 45.82 66.87 45.63 66.33C45.04 64.65 44.72 62.85 44.72 60.97C44.72 59.09 45.06 57.17 45.69 55.44C45.86 54.96 46.06 54.5 46.28 54.04C47.9 50.62 50.68 47.86 54.12 46.27C54.53 46.07 54.96 45.9 55.39 45.74C57.12 45.11 58.98 44.77 60.92 44.77C62.86 44.77 64.73 45.11 66.46 45.74C66.89 45.9 67.32 46.07 67.73 46.27C71.17 47.86 73.96 50.63 75.57 54.06C75.79 54.51 75.98 54.96 76.15 55.43C76.78 57.16 77.12 59.03 77.12 60.97C77.12 62.91 76.8 64.67 76.2 66.35C76.02 66.88 75.81 67.39 75.57 67.89C73.99 71.23 71.3 73.95 67.97 75.56C67.43 75.82 66.87 76.06 66.3 76.25Z" fill="white"/>
</svg>
