<svg width="363" height="47" viewBox="0 0 363 47" fill="none" xmlns="http://www.w3.org/2000/svg">
<path d="M8.208 16.207C7.326 16.207 6.615 16.396 6.075 16.774C5.535 17.134 5.112 17.665 4.806 18.367C4.518 19.069 4.32 19.924 4.212 20.932C4.104 21.94 4.05 23.083 4.05 24.361C4.05 25.549 4.095 26.638 4.185 27.628C4.293 28.6 4.5 29.437 4.806 30.139C5.112 30.841 5.553 31.39 6.129 31.786C6.705 32.164 7.47 32.353 8.424 32.353C9.234 32.353 9.891 32.218 10.395 31.948C10.917 31.678 11.322 31.318 11.61 30.868C11.916 30.4 12.123 29.86 12.231 29.248C12.357 28.618 12.42 27.952 12.42 27.25H15.12C15.12 28.24 15.003 29.167 14.769 30.031C14.535 30.877 14.148 31.624 13.608 32.272C13.086 32.902 12.384 33.397 11.502 33.757C10.638 34.117 9.576 34.297 8.316 34.297C6.822 34.297 5.616 34.045 4.698 33.541C3.78 33.037 3.06 32.326 2.538 31.408C2.034 30.49 1.692 29.392 1.512 28.114C1.332 26.836 1.242 25.423 1.242 23.875C1.242 22.561 1.314 21.319 1.458 20.149C1.602 18.979 1.908 17.962 2.376 17.098C2.862 16.216 3.555 15.523 4.455 15.019C5.355 14.515 6.552 14.263 8.046 14.263C8.568 14.263 9.054 14.308 9.504 14.398C9.972 14.47 10.386 14.614 10.746 14.83C11.124 15.028 11.43 15.316 11.664 15.694C11.916 16.054 12.096 16.513 12.204 17.071H12.339L12.879 14.56H15.012V21.175H12.339C12.339 19.645 11.997 18.439 11.313 17.557C10.647 16.657 9.612 16.207 8.208 16.207ZM16.6459 32.38L18.6169 31.84V15.775L16.5919 15.235V13.615H21.1819V31.84L23.2069 32.38V34H16.6459V32.38ZM28.6489 34.27C28.1989 34.27 27.7219 34.207 27.2179 34.081C26.7319 33.973 26.2819 33.775 25.8679 33.487C25.4539 33.181 25.1119 32.776 24.8419 32.272C24.5719 31.75 24.4369 31.093 24.4369 30.301C24.4369 29.725 24.5269 29.203 24.7069 28.735C24.8869 28.249 25.1749 27.835 25.5709 27.493C25.9669 27.151 26.4799 26.881 27.1099 26.683C27.7579 26.467 28.5499 26.332 29.4859 26.278L32.2939 26.143V24.928C32.2939 24.154 32.1409 23.497 31.8349 22.957C31.5289 22.399 30.9529 22.12 30.1069 22.12C29.6389 22.12 29.2429 22.201 28.9189 22.363C28.5949 22.525 28.3249 22.741 28.1089 23.011C27.9109 23.281 27.7579 23.587 27.6499 23.929C27.5599 24.253 27.5149 24.577 27.5149 24.901H25.2199V20.5H26.9749L27.5149 22.201H27.6229C27.9829 21.499 28.4689 20.995 29.0809 20.689C29.6929 20.383 30.4039 20.23 31.2139 20.23C32.3659 20.23 33.2569 20.518 33.8869 21.094C34.5349 21.67 34.8589 22.597 34.8589 23.875V31.84L36.8839 32.38V34H32.8339L32.2939 32.056C32.1499 32.524 31.9339 32.902 31.6459 33.19C31.3579 33.478 31.0429 33.703 30.7009 33.865C30.3589 34.027 29.9989 34.135 29.6209 34.189C29.2609 34.243 28.9369 34.27 28.6489 34.27ZM29.3779 32.38C29.9179 32.38 30.3769 32.272 30.7549 32.056C31.1329 31.822 31.4299 31.534 31.6459 31.192C31.8799 30.832 32.0419 30.436 32.1319 30.004C32.2399 29.554 32.2939 29.113 32.2939 28.681V27.547L29.8909 27.682C29.3149 27.718 28.8469 27.808 28.4869 27.952C28.1269 28.096 27.8389 28.285 27.6229 28.519C27.4069 28.735 27.2539 28.987 27.1639 29.275C27.0919 29.545 27.0559 29.833 27.0559 30.139C27.0559 30.589 27.1279 30.958 27.2719 31.246C27.4159 31.534 27.5959 31.768 27.8119 31.948C28.0279 32.11 28.2709 32.227 28.5409 32.299C28.8289 32.353 29.1079 32.38 29.3779 32.38ZM46.4149 22.687C45.6589 22.687 45.0289 22.732 44.5249 22.822C44.0209 22.912 43.6159 23.092 43.3099 23.362C43.0039 23.632 42.7789 24.001 42.6349 24.469C42.5089 24.937 42.4459 25.549 42.4459 26.305V31.894L45.2539 32.245V34H37.8559V32.434L39.8809 31.894V22.66L37.8289 22.12V20.5H41.7709L42.3109 22.66C42.6169 21.832 43.1479 21.22 43.9039 20.824C44.6599 20.428 45.4969 20.23 46.4149 20.23V22.687ZM47.7172 32.38L49.6882 31.84V22.498L47.6632 21.958V20.5H52.2532V31.84L54.2782 32.38V34H47.7172V32.38ZM50.8762 17.827C50.3722 17.827 49.9582 17.665 49.6342 17.341C49.3102 17.017 49.1482 16.603 49.1482 16.099C49.1482 15.595 49.3102 15.19 49.6342 14.884C49.9582 14.56 50.3722 14.398 50.8762 14.398C51.3802 14.398 51.7942 14.56 52.1182 14.884C52.4422 15.19 52.6042 15.595 52.6042 16.099C52.6042 16.603 52.4422 17.017 52.1182 17.341C51.7942 17.665 51.3802 17.827 50.8762 17.827ZM54.9568 21.04L56.9818 20.5L57.5218 16.963H59.5468V20.5H62.0848V22.471H59.5468V29.815C59.5468 30.643 59.6458 31.246 59.8438 31.624C60.0418 32.002 60.3658 32.191 60.8158 32.191C61.0138 32.191 61.2658 32.164 61.5718 32.11C61.8778 32.056 62.1658 31.984 62.4358 31.894L63.0028 33.406C62.7328 33.658 62.3368 33.865 61.8148 34.027C61.3108 34.189 60.7798 34.27 60.2218 34.27C59.0878 34.27 58.2598 33.919 57.7378 33.217C57.2338 32.497 56.9818 31.363 56.9818 29.815V22.471H54.9568V21.04ZM64.6884 22.66L63.3654 22.12V20.5H69.4944V22.255L67.3614 22.66L70.2504 32.137L73.0854 22.66L70.9254 22.255V20.5H77.0274V22.12L75.6774 22.66L70.5474 37.645L72.5994 38.185V39.805H65.6334V38.104L68.1984 37.645L69.5484 34H68.7114L64.6884 22.66Z" fill="#003250"/>
<rect x="100" y="21" width="263" height="4" rx="2" fill="#F2E8E0"/>
<rect x="100" y="21" width="34" height="4" rx="2" fill="#8EAF86"/>
<circle cx="99.5" cy="23.5" r="4.5" fill="#8EAF86" stroke="#8EAF86" stroke-width="2"/>
<circle cx="275.5" cy="23.5" r="4.5" fill="#FFF7F1" stroke="#F2E8E0" stroke-width="2"/>
<circle cx="195.5" cy="23.5" r="4.5" fill="#FFF7F1" stroke="#F2E8E0" stroke-width="2"/>
<circle cx="357.5" cy="23.5" r="4.5" fill="#FFF7F1" stroke="#F2E8E0" stroke-width="2"/>
</svg>
